<svg width="16" height="16" viewBox="0 0 16 16" fill="none" xmlns="http://www.w3.org/2000/svg">
<g clip-path="url(#clip0_11_338)">
<path d="M8 15C6.14348 15 4.36301 14.2625 3.05025 12.9497C1.7375 11.637 1 9.85652 1 8C1 6.14348 1.7375 4.36301 3.05025 3.05025C4.36301 1.7375 6.14348 1 8 1C9.85652 1 11.637 1.7375 12.9497 3.05025C14.2625 4.36301 15 6.14348 15 8C15 9.85652 14.2625 11.637 12.9497 12.9497C11.637 14.2625 9.85652 15 8 15ZM8 16C10.1217 16 12.1566 15.1571 13.6569 13.6569C15.1571 12.1566 16 10.1217 16 8C16 5.87827 15.1571 3.84344 13.6569 2.34315C12.1566 0.842855 10.1217 0 8 0C5.87827 0 3.84344 0.842855 2.34315 2.34315C0.842855 3.84344 0 5.87827 0 8C0 10.1217 0.842855 12.1566 2.34315 13.6569C3.84344 15.1571 5.87827 16 8 16Z" fill="#EEEEEE"/>
<path d="M4.64604 4.64599C4.69248 4.59943 4.74766 4.56249 4.80841 4.53728C4.86915 4.51207 4.93427 4.4991 5.00004 4.4991C5.06581 4.4991 5.13093 4.51207 5.19167 4.53728C5.25242 4.56249 5.30759 4.59943 5.35404 4.64599L8.00004 7.29299L10.646 4.64599C10.6925 4.59951 10.7477 4.56263 10.8085 4.53747C10.8692 4.51231 10.9343 4.49936 11 4.49936C11.0658 4.49936 11.1309 4.51231 11.1916 4.53747C11.2524 4.56263 11.3076 4.59951 11.354 4.64599C11.4005 4.69248 11.4374 4.74767 11.4626 4.80841C11.4877 4.86915 11.5007 4.93425 11.5007 4.99999C11.5007 5.06574 11.4877 5.13084 11.4626 5.19158C11.4374 5.25232 11.4005 5.30751 11.354 5.35399L8.70704 7.99999L11.354 10.646C11.4005 10.6925 11.4374 10.7477 11.4626 10.8084C11.4877 10.8691 11.5007 10.9342 11.5007 11C11.5007 11.0657 11.4877 11.1308 11.4626 11.1916C11.4374 11.2523 11.4005 11.3075 11.354 11.354C11.3076 11.4005 11.2524 11.4374 11.1916 11.4625C11.1309 11.4877 11.0658 11.5006 11 11.5006C10.9343 11.5006 10.8692 11.4877 10.8085 11.4625C10.7477 11.4374 10.6925 11.4005 10.646 11.354L8.00004 8.70699L5.35404 11.354C5.30755 11.4005 5.25236 11.4374 5.19162 11.4625C5.13088 11.4877 5.06578 11.5006 5.00004 11.5006C4.9343 11.5006 4.86919 11.4877 4.80846 11.4625C4.74772 11.4374 4.69253 11.4005 4.64604 11.354C4.59955 11.3075 4.56267 11.2523 4.53752 11.1916C4.51236 11.1308 4.49941 11.0657 4.49941 11C4.49941 10.9342 4.51236 10.8691 4.53752 10.8084C4.56267 10.7477 4.59955 10.6925 4.64604 10.646L7.29304 7.99999L4.64604 5.35399C4.59948 5.30755 4.56253 5.25237 4.53733 5.19163C4.51212 5.13088 4.49915 5.06576 4.49915 4.99999C4.49915 4.93423 4.51212 4.8691 4.53733 4.80836C4.56253 4.74761 4.59948 4.69244 4.64604 4.64599Z" fill="#EEEEEE"/>
</g>
<defs>
<clipPath id="clip0_11_338">
<rect width="16" height="16" fill="white"/>
</clipPath>
</defs>
</svg>
